<svg xmlns="http://www.w3.org/2000/svg" xmlns:xlink="http://www.w3.org/1999/xlink" version="1.1" id="grill" x="0px" y="0px" viewBox="5.0 -9.9999 100.0 134.99865" enable-background="new 0 0 100 99.999" xml:space="preserve" height="100px" width="100px">
<path d="M91.597,68.49h-7.043L66.378,41.031c-0.51-0.771-1.789-0.771-2.299,0l-6.239,9.425L44.604,30.459  c-0.511-0.771-1.789-0.771-2.3,0L17.131,68.49h-7.042c-0.762,0-1.379,0.617-1.379,1.379s0.617,1.379,1.379,1.379h81.508  c0.762,0,1.379-0.617,1.379-1.379S92.358,68.49,91.597,68.49z M43.455,33.719l7.849,11.858l-3.116,4.849l-3.584-5.579  c-0.254-0.395-0.691-0.634-1.16-0.634s-0.906,0.239-1.16,0.633L38.7,50.425l-3.105-4.833L43.455,33.719z M20.438,68.49  l13.493-20.384l3.608,5.616c0.254,0.396,0.691,0.634,1.16,0.634s0.906-0.238,1.16-0.634l3.584-5.579l3.584,5.579  c0.254,0.396,0.691,0.634,1.16,0.634s0.906-0.238,1.16-0.634l3.619-5.631l8.413,12.771c0.42,0.636,1.277,0.809,1.91,0.389  c0.005-0.003,0.007-0.009,0.012-0.012c0.005-0.003,0.011-0.003,0.016-0.007c0.636-0.42,0.81-1.275,0.389-1.91l-4.214-6.367  l5.735-8.663L81.247,68.49H20.438z"/>
<text x="0.0" y="117.498825" font-size="4.99995" font-weight="bold" font-family="Helvetica Neue, Helvetica, Arial-Unicode, Arial, Sans-serif" fill="#000000">Created by Nathan Driskell</text><text x="0.0" y="122.498775" font-size="4.99995" font-weight="bold" font-family="Helvetica Neue, Helvetica, Arial-Unicode, Arial, Sans-serif" fill="#000000">from the Noun Project</text></svg>