<?xml version="1.0" encoding="utf-8"?>
<!-- Generator: Adobe Illustrator 18.0.0, SVG Export Plug-In . SVG Version: 6.00 Build 0)  -->
<!DOCTYPE svg PUBLIC "-//W3C//DTD SVG 1.0//EN" "http://www.w3.org/TR/2001/REC-SVG-20010904/DTD/svg10.dtd">
<svg version="1.0" id="Layer_1" xmlns="http://www.w3.org/2000/svg" xmlns:xlink="http://www.w3.org/1999/xlink" x="0px" y="0px"
	 viewBox="0 0 215.7 37.1" enable-background="new 0 0 215.7 37.1" xml:space="preserve">
<g>
	<path fill="#FFFFFF" d="M10.3,13.5c0-1.3,0.5-2.3,1.4-2.9c0.8-0.6,1.9-0.9,3.3-0.9c2.1,0,3.6,0.5,4.5,1.5c0.2,0.3,0.4,0.5,0.4,0.7
		c0,0.4-0.2,0.6-0.6,0.6c-0.2,0-0.4-0.1-0.8-0.3c-0.3-0.2-0.7-0.4-1.1-0.6c-0.7-0.3-1.5-0.5-2.4-0.5c-0.9,0-1.6,0.2-2.1,0.5
		c-0.7,0.4-1,1-1,1.9c0,1,0.7,1.7,2.2,2.1l4,1.2c1.5,0.7,2.3,1.9,2.3,3.6c0,1.3-0.5,2.4-1.6,3.1c-0.9,0.6-2.1,0.9-3.6,0.9
		c-0.9,0-1.9-0.2-2.9-0.5c-1.3-0.4-2-1-2-1.6c0-0.4,0.2-0.6,0.6-0.6c0.2,0,0.6,0.2,1.4,0.6c0.9,0.5,1.9,0.7,3,0.7
		c1,0,1.8-0.2,2.5-0.6c0.8-0.5,1.2-1.2,1.2-2.2c0-1.3-0.8-2.1-2.3-2.5l-3-1C11.4,16.2,10.3,15.1,10.3,13.5z"/>
	<path fill="#FFFFFF" d="M29.7,23.1c-0.7,0.5-1.2,0.8-1.6,1c-0.5,0.2-1.1,0.3-1.8,0.3c-1.1,0-2-0.2-2.8-0.7
		c-0.8-0.6-1.2-1.4-1.2-2.4c0-1.1,0.4-1.9,1.3-2.5c0.8-0.5,1.7-0.8,2.8-0.8c0.9,0,2,0.2,3.2,0.6v-1.6c0-0.8-0.4-1.3-1.1-1.7
		c-0.5-0.2-1.1-0.3-1.9-0.3c-1.7,0-2.7,0.5-2.9,1.4c-0.1,0.4-0.1,0.7-0.1,0.7c-0.1,0.2-0.3,0.3-0.6,0.3c-0.5,0-0.7-0.3-0.7-0.8
		c0-0.7,0.3-1.3,0.8-1.9c0.7-0.7,1.9-1.1,3.6-1.1c1.4,0,2.4,0.2,3,0.7c0.8,0.5,1.2,1.5,1.2,2.8v4.8c0,0.6,0.1,0.9,0.4,1.1
		c0,0,0.3,0.1,0.6,0.3c0.2,0.1,0.4,0.3,0.4,0.6c0,0.4-0.2,0.6-0.6,0.6c-0.1,0-0.3,0-0.6-0.1c-0.5-0.2-0.8-0.3-0.9-0.3
		C30,23.7,29.8,23.5,29.7,23.1z M29.7,21.7v-2c-1-0.3-2-0.5-3-0.5c-2,0-3,0.6-3,1.9c0,0.7,0.3,1.2,0.9,1.5c0.5,0.3,1.1,0.4,1.8,0.4
		c0.6,0,1.2-0.1,1.7-0.4C28.6,22.5,29.1,22.2,29.7,21.7z"/>
	<path fill="#FFFFFF" d="M35.4,15.1h-1.9c-0.5,0-0.8-0.2-0.8-0.7s0.3-0.7,0.8-0.7h1.9v-3.6c0-0.7,0.2-1.1,0.7-1.1
		c0.5,0,0.7,0.4,0.7,1.1v3.6h3.6c0.5,0,0.8,0.2,0.8,0.6c0,0.5-0.3,0.7-0.8,0.7h-3.6v6c0,1.4,0.6,2,1.9,2c0.7,0,1.3-0.2,1.9-0.6
		c0.6-0.4,1-0.6,1.1-0.6c0.4,0,0.6,0.2,0.6,0.6c0,0.5-0.5,1-1.5,1.5c-0.7,0.3-1.4,0.5-2.2,0.5c-2.1,0-3.1-1.1-3.1-3.3V15.1z"/>
	<path fill="#FFFFFF" d="M52.2,23c-0.7,0.5-1.3,0.9-1.8,1.1c-0.6,0.2-1.3,0.3-2.1,0.3c-1.3,0-2.3-0.3-3-0.9
		c-0.7-0.6-1.1-1.5-1.1-2.6v-6.6c0-0.5,0.2-0.8,0.7-0.8c0.5,0,0.7,0.3,0.7,0.8v6.4c0,0.8,0.3,1.4,0.8,1.8c0.5,0.3,1.2,0.5,2.3,0.5
		c1.3,0,2.4-0.5,3.5-1.5v-7.3c0-0.5,0.2-0.8,0.7-0.8c0.4,0,0.7,0.3,0.7,0.8v9.3c0,0.5-0.2,0.8-0.6,0.8c-0.2,0-0.4-0.2-0.5-0.6
		C52.3,23.6,52.3,23.3,52.2,23z"/>
	<path fill="#FFFFFF" d="M58.8,22.8v-7.8h-2c-0.5,0-0.8-0.2-0.8-0.7c0-0.5,0.3-0.7,0.8-0.7h2.7c0.5,0,0.7,0.4,0.7,1.2
		c0.8-0.9,1.7-1.4,2.7-1.4c0.8,0,1.4,0.2,1.8,0.7c0.5,0.5,0.7,1.1,0.7,1.9c0,0.5-0.2,0.8-0.7,0.8c-0.3,0-0.5-0.2-0.6-0.5
		c-0.2-0.6-0.3-1-0.3-1c-0.2-0.4-0.6-0.5-1.1-0.5c-0.5,0-1,0.2-1.5,0.6c-0.2,0.2-0.6,0.6-1.1,1.2v6.2h2.5c0.5,0,0.8,0.2,0.8,0.6
		c0,0.5-0.3,0.7-0.8,0.7h-5.9c-0.5,0-0.8-0.2-0.8-0.7c0-0.5,0.3-0.7,0.8-0.7H58.8z"/>
	<path fill="#FFFFFF" d="M75.6,23.1c-0.7,0.5-1.2,0.8-1.7,1c-0.5,0.2-1.1,0.3-1.9,0.3c-1.3,0-2.3-0.3-3-0.8
		c-0.9-0.6-1.3-1.5-1.3-2.7V17c0-1.2,0.4-2,1.3-2.6c0.8-0.5,1.7-0.8,2.9-0.8c0.8,0,1.5,0.1,2,0.3c0.5,0.2,1.1,0.5,1.7,1V10
		c0-0.6,0.2-1,0.6-1c0.5,0,0.7,0.3,0.7,1v13.7c0,0.5-0.2,0.7-0.6,0.7c-0.3,0-0.4-0.2-0.5-0.4C75.7,23.7,75.6,23.5,75.6,23.1z
		 M75.5,21.6v-5.4c-0.7-0.5-1.2-0.8-1.6-1c-0.5-0.2-1.2-0.3-1.8-0.3c-0.9,0-1.6,0.2-2.1,0.5c-0.7,0.4-1,1-1,1.8v3.7
		c0,0.8,0.3,1.4,1,1.8c0.6,0.3,1.3,0.5,2.1,0.5c0.7,0,1.3-0.1,1.9-0.4C74.5,22.5,75,22.1,75.5,21.6z"/>
	<path fill="#FFFFFF" d="M86.9,23.1c-0.7,0.5-1.2,0.8-1.6,1c-0.5,0.2-1.1,0.3-1.8,0.3c-1.1,0-2-0.2-2.8-0.7
		c-0.8-0.6-1.2-1.4-1.2-2.4c0-1.1,0.4-1.9,1.3-2.5c0.8-0.5,1.7-0.8,2.8-0.8c0.9,0,2,0.2,3.2,0.6v-1.6c0-0.8-0.4-1.3-1.1-1.7
		c-0.5-0.2-1.1-0.3-1.9-0.3c-1.7,0-2.7,0.5-2.9,1.4c-0.1,0.4-0.1,0.7-0.1,0.7c-0.1,0.2-0.3,0.3-0.6,0.3c-0.5,0-0.7-0.3-0.7-0.8
		c0-0.7,0.3-1.3,0.8-1.9c0.7-0.7,1.9-1.1,3.6-1.1c1.4,0,2.4,0.2,3,0.7c0.8,0.5,1.2,1.5,1.2,2.8v4.8c0,0.6,0.1,0.9,0.4,1.1
		c0,0,0.3,0.1,0.6,0.3c0.2,0.1,0.4,0.3,0.4,0.6c0,0.4-0.2,0.6-0.6,0.6c-0.1,0-0.3,0-0.6-0.1c-0.5-0.2-0.8-0.3-0.9-0.3
		C87.1,23.7,86.9,23.5,86.9,23.1z M86.8,21.7v-2c-1-0.3-2-0.5-3-0.5c-2,0-3,0.6-3,1.9c0,0.7,0.3,1.2,0.9,1.5
		c0.5,0.3,1.1,0.4,1.8,0.4c0.6,0,1.2-0.1,1.7-0.4C85.7,22.5,86.2,22.2,86.8,21.7z"/>
	<path fill="#FFFFFF" d="M94.9,23.8l-3.8-9c-0.1-0.3-0.2-0.4-0.2-0.6c0-0.4,0.2-0.6,0.7-0.6c0.3,0,0.5,0.2,0.6,0.5l3.4,8l3.2-7.7
		c0.2-0.5,0.5-0.8,0.8-0.8c0.4,0,0.6,0.2,0.6,0.6c0,0.2-0.1,0.4-0.2,0.7l-5.1,12.4c-0.4,1-1.2,1.5-2.2,1.5c-0.4,0-0.8-0.1-1.2-0.2
		C91.2,28.3,91,28,91,27.6c0-0.4,0.2-0.6,0.6-0.6c0.1,0,0.3,0.1,0.5,0.2c0.2,0.1,0.5,0.2,0.7,0.2c0.5,0,0.8-0.3,1.1-0.9L94.9,23.8z"
		/>
	<path fill="#FFFFFF" d="M102.5,13.5c0-1.3,0.5-2.3,1.4-2.9c0.8-0.6,1.9-0.9,3.3-0.9c2.1,0,3.6,0.5,4.5,1.5c0.2,0.3,0.4,0.5,0.4,0.7
		c0,0.4-0.2,0.6-0.6,0.6c-0.2,0-0.4-0.1-0.8-0.3c-0.3-0.2-0.7-0.4-1.1-0.6c-0.7-0.3-1.5-0.5-2.4-0.5c-0.9,0-1.6,0.2-2.1,0.5
		c-0.7,0.4-1,1-1,1.9c0,1,0.7,1.7,2.2,2.1l4,1.2c1.5,0.7,2.3,1.9,2.3,3.6c0,1.3-0.5,2.4-1.6,3.1c-0.9,0.6-2.1,0.9-3.6,0.9
		c-0.9,0-1.9-0.2-2.9-0.5c-1.3-0.4-2-1-2-1.6c0-0.4,0.2-0.6,0.6-0.6c0.2,0,0.6,0.2,1.4,0.6c0.9,0.5,1.9,0.7,3,0.7
		c1,0,1.8-0.2,2.5-0.6c0.8-0.5,1.2-1.2,1.2-2.2c0-1.3-0.8-2.1-2.3-2.5l-3-1C103.6,16.2,102.5,15.1,102.5,13.5z"/>
	<path fill="#FFFFFF" d="M122.3,23c-0.7,0.5-1.3,0.9-1.8,1.1c-0.6,0.2-1.3,0.3-2.1,0.3c-1.3,0-2.3-0.3-3-0.9
		c-0.7-0.6-1.1-1.5-1.1-2.6v-6.6c0-0.5,0.2-0.8,0.7-0.8c0.5,0,0.7,0.3,0.7,0.8v6.4c0,0.8,0.3,1.4,0.8,1.8c0.5,0.3,1.2,0.5,2.3,0.5
		c1.3,0,2.4-0.5,3.5-1.5v-7.3c0-0.5,0.2-0.8,0.7-0.8c0.4,0,0.7,0.3,0.7,0.8v9.3c0,0.5-0.2,0.8-0.6,0.8c-0.2,0-0.4-0.2-0.5-0.6
		C122.4,23.6,122.4,23.3,122.3,23z"/>
	<path fill="#FFFFFF" d="M127.1,14.7c0.3-0.4,0.6-0.7,0.8-0.8c0.3-0.2,0.7-0.3,1.1-0.3c0.7,0,1.4,0.4,1.9,1.2c0.4-0.4,0.7-0.7,1-0.9
		c0.3-0.2,0.8-0.3,1.3-0.3c1.6,0,2.4,0.8,2.4,2.3v7.6c0,0.6-0.2,0.9-0.7,0.9c-0.4,0-0.7-0.3-0.7-0.9v-7.1c0-1-0.4-1.5-1.2-1.5
		c-0.6,0-1.2,0.4-1.7,1.1v7.5c0,0.6-0.2,0.9-0.7,0.9c-0.4,0-0.7-0.3-0.7-0.9v-7c0-1.1-0.4-1.6-1.3-1.6c-0.5,0-1.1,0.4-1.6,1.1v7.5
		c0,0.6-0.2,0.9-0.7,0.9c-0.4,0-0.7-0.3-0.7-0.9v-9.2c0-0.5,0.2-0.7,0.6-0.7c0.2,0,0.4,0.1,0.5,0.4C127,14.2,127.1,14.4,127.1,14.7z
		"/>
	<path fill="#FFFFFF" d="M138.8,14.7c0.3-0.4,0.6-0.7,0.8-0.8c0.3-0.2,0.7-0.3,1.1-0.3c0.7,0,1.4,0.4,1.9,1.2c0.4-0.4,0.7-0.7,1-0.9
		c0.3-0.2,0.8-0.3,1.3-0.3c1.6,0,2.4,0.8,2.4,2.3v7.6c0,0.6-0.2,0.9-0.7,0.9c-0.4,0-0.7-0.3-0.7-0.9v-7.1c0-1-0.4-1.5-1.2-1.5
		c-0.6,0-1.2,0.4-1.7,1.1v7.5c0,0.6-0.2,0.9-0.7,0.9c-0.4,0-0.7-0.3-0.7-0.9v-7c0-1.1-0.4-1.6-1.3-1.6c-0.5,0-1.1,0.4-1.6,1.1v7.5
		c0,0.6-0.2,0.9-0.7,0.9c-0.4,0-0.7-0.3-0.7-0.9v-9.2c0-0.5,0.2-0.7,0.6-0.7c0.2,0,0.4,0.1,0.5,0.4
		C138.7,14.2,138.8,14.4,138.8,14.7z"/>
	<path fill="#FFFFFF" d="M153.7,22.8v-7.8h-2.3c-0.7,0-1-0.2-1-0.7c0-0.4,0.3-0.6,1-0.6h2.7c0.6,0,0.9,0.3,0.9,0.9v8.2h2.5
		c0.6,0,0.9,0.2,0.9,0.7c0,0.4-0.3,0.7-0.9,0.7h-7.1c-0.6,0-0.9-0.2-0.9-0.7c0-0.5,0.3-0.7,0.9-0.7H153.7z M154.1,9
		c0.3,0,0.6,0.1,0.9,0.4c0.2,0.3,0.4,0.6,0.4,0.9c0,0.4-0.1,0.7-0.4,0.9c-0.2,0.3-0.5,0.4-0.9,0.4c-0.4,0-0.7-0.1-0.9-0.4
		c-0.2-0.2-0.4-0.5-0.4-0.9c0-0.4,0.1-0.7,0.4-0.9S153.7,9,154.1,9z"/>
	<path fill="#FFFFFF" d="M160.9,15.1H159c-0.5,0-0.8-0.2-0.8-0.7s0.3-0.7,0.8-0.7h1.9v-3.6c0-0.7,0.2-1.1,0.7-1.1
		c0.5,0,0.7,0.4,0.7,1.1v3.6h3.6c0.5,0,0.8,0.2,0.8,0.6c0,0.5-0.3,0.7-0.8,0.7h-3.6v6c0,1.4,0.6,2,1.9,2c0.7,0,1.3-0.2,1.9-0.6
		c0.6-0.4,1-0.6,1.1-0.6c0.4,0,0.6,0.2,0.6,0.6c0,0.5-0.5,1-1.5,1.5c-0.7,0.3-1.4,0.5-2.2,0.5c-2.1,0-3.1-1.1-3.1-3.3V15.1z"/>
	<path fill="#FFFFFF" d="M170.4,18.8c0-2.9,1-5.6,3.1-7.9c0.7-0.8,1.3-1.3,1.7-1.3c0.2,0,0.3,0.1,0.4,0.2s0.2,0.2,0.2,0.4
		c0,0.2-0.3,0.6-0.8,1.1c-2.1,2-3.2,4.6-3.2,7.6c0,3.3,1.1,6.1,3.3,8.2c0.4,0.4,0.7,0.8,0.7,1c0,0.2-0.1,0.3-0.2,0.4
		c-0.1,0.1-0.3,0.2-0.4,0.2c-0.5,0-1.2-0.6-2.2-1.8C171.3,24.7,170.4,22,170.4,18.8z"/>
	<path fill="#FFFFFF" d="M205.8,19.5c0,2.9-1,5.6-3.1,7.9c-0.7,0.8-1.3,1.3-1.7,1.3c-0.2,0-0.3-0.1-0.4-0.2s-0.2-0.2-0.2-0.4
		c0-0.2,0.3-0.6,0.8-1.1c2.1-2,3.2-4.6,3.2-7.6c0-3.3-1.1-6.1-3.3-8.2c-0.4-0.4-0.7-0.8-0.7-1c0-0.2,0.1-0.3,0.2-0.4
		c0.1-0.1,0.3-0.2,0.4-0.2c0.5,0,1.2,0.6,2.2,1.8C205,13.7,205.8,16.4,205.8,19.5z"/>
	<path fill="#FFFFFF" d="M200.1,23.4h-2l-5.3-8c-0.1-0.2-0.5-0.2-0.7,0l-1.8,2.7l-3.8-5.8c-0.1-0.2-0.5-0.2-0.7,0l-7.3,11h-2
		c-0.2,0-0.4,0.2-0.4,0.4c0,0.2,0.2,0.4,0.4,0.4h23.6c0.2,0,0.4-0.2,0.4-0.4C200.5,23.6,200.4,23.4,200.1,23.4z M186.2,13.3l2.3,3.4
		l-0.9,1.4l-1-1.6c-0.1-0.1-0.2-0.2-0.3-0.2s-0.3,0.1-0.3,0.2l-1,1.6l-0.9-1.4L186.2,13.3z M179.5,23.4l3.9-5.9l1,1.6
		c0.1,0.1,0.2,0.2,0.3,0.2s0.3-0.1,0.3-0.2l1-1.6l1,1.6c0.1,0.1,0.2,0.2,0.3,0.2s0.3-0.1,0.3-0.2l1-1.6l2.4,3.7
		c0.1,0.2,0.4,0.2,0.6,0.1c0,0,0,0,0,0s0,0,0,0c0.2-0.1,0.2-0.4,0.1-0.6l-1.2-1.8l1.7-2.5l4.6,7H179.5z"/>
</g>
</svg>
