<?xml version="1.0" encoding="utf-8"?>
<!-- Generator: Adobe Illustrator 18.0.0, SVG Export Plug-In . SVG Version: 6.00 Build 0)  -->
<!DOCTYPE svg PUBLIC "-//W3C//DTD SVG 1.0//EN" "http://www.w3.org/TR/2001/REC-SVG-20010904/DTD/svg10.dtd">
<svg version="1.0" id="Layer_1" xmlns="http://www.w3.org/2000/svg" xmlns:xlink="http://www.w3.org/1999/xlink" x="0px" y="0px"
	 viewBox="0 0 1500 500" enable-background="new 0 0 1500 500" xml:space="preserve">
<path id="path5_1_" inkscape:export-xdpi="90" inkscape:connector-curvature="0" inkscape:export-filename="C:\Users\anon\Desktop\logo4.0.png" inkscape:export-ydpi="90" fill="#FFFFFF" d="
	M60.8,219.7H48.5c-4.3,0-6.5-1.9-6.5-5.6c0-3.7,2.2-5.6,6.5-5.6h12.4v-10.8c0-18.9,9.6-28.2,28.8-28.2c7.7,0,14.2,1.5,19.5,4.3
	c6.5,4,9.9,9.9,9.9,17.3c0,5-1.9,7.1-5.6,7.1c-2.5,0-4.6-1.5-5.9-4.3c-1.5-5-3.1-7.7-4-9c-2.2-2.8-6.8-4.3-13.6-4.3
	c-11.8,0-17.3,5.9-17.3,17.3v10.5h22.6c5,0,7.4,1.9,7.4,5.6c0,3.7-2.5,5.6-7.4,5.6H72.6v70.9c0,4.3-1.9,6.5-5.6,6.5
	c-3.7,0-5.6-2.2-5.6-6.5v-70.9H60.8z"/>
<path id="path7_1_" inkscape:export-xdpi="90" inkscape:connector-curvature="0" inkscape:export-filename="C:\Users\anon\Desktop\logo4.0.png" inkscape:export-ydpi="90" fill="#FFFFFF" d="
	M161.4,284.4v-64.7h-16.7c-4.6,0-6.8-1.9-6.8-5.6c0-3.7,2.2-5.6,6.8-5.6H167c3.7,0,5.9,3.4,5.9,9.6c6.8-7.4,14.2-11.4,22-11.4
	c6.5,0,11.4,1.9,15.2,5.9c3.7,4,5.6,9.3,5.6,15.5c0,4.3-1.9,6.5-5.6,6.5c-2.2,0-3.7-1.5-4.6-4.3c-1.5-5.3-2.5-8-2.8-8.4
	c-1.5-2.8-4.6-4.3-8.7-4.3c-4.3,0-8.4,1.5-12.1,4.6c-2.2,1.5-5.3,5-9.3,9.9v51.7h21c4.6,0,6.8,1.9,6.8,5.3c0,3.7-2.2,5.9-6.8,5.9
	h-49.2c-4.6,0-6.8-1.9-6.8-5.6c0-3.7,2.2-5.6,6.8-5.6h17L161.4,284.4z"/>
<path id="path9_1_" inkscape:export-xdpi="90" inkscape:connector-curvature="0" inkscape:export-filename="C:\Users\anon\Desktop\logo4.0.png" inkscape:export-ydpi="90" fill="#FFFFFF" d="
	M245.8,254.1v12.4c0,13.3,9.3,19.8,28.2,19.8c6.8,0,12.4-0.6,16.7-2.2c2.2-0.6,6.2-2.8,11.4-6.5c3.4-3.1,5.9-4.6,6.8-4.6
	c3.1,0,4.6,1.5,4.6,5c0,3.4-2.2,6.8-6.8,10.5c-7.4,5.9-18.6,9-33.4,9c-26,0-39-10.2-39-30.6v-30.9c0-7.1,2.8-13.3,8-18.3
	c7.1-6.8,17.6-9.9,31.9-9.9c25.4,0,38.1,12.7,38.1,37.7c0,6.2-2.5,9.3-7.1,9.3h-59.4L245.8,254.1z M245.8,242.9h55.4
	c0-16.7-9.3-25.1-28.2-25.1c-6.8,0-13,1.5-18.6,4.6c-5.6,4-8.7,8.7-8.7,13.9V242.9z"/>
<path id="path11_1_" inkscape:export-xdpi="90" inkscape:connector-curvature="0" inkscape:export-filename="C:\Users\anon\Desktop\logo4.0.png" inkscape:export-ydpi="90" fill="#FFFFFF" d="
	M343,254.1v12.4c0,13.3,9.3,19.8,28.2,19.8c6.8,0,12.4-0.6,16.7-2.2c2.2-0.6,6.2-2.8,11.4-6.5c3.4-3.1,5.9-4.6,6.8-4.6
	c3.1,0,4.6,1.5,4.6,5c0,3.4-2.2,6.8-6.8,10.5c-7.4,5.9-18.6,9-33.4,9c-26,0-39-10.2-39-30.6v-30.9c0-7.1,2.8-13.3,8-18.3
	c7.1-6.8,17.6-9.9,31.9-9.9c25.4,0,38.1,12.7,38.1,37.7c0,6.2-2.5,9.3-7.1,9.3H343L343,254.1z M343,242.9h55.4
	c0-16.7-9.3-25.1-28.2-25.1c-6.8,0-13,1.5-18.6,4.6c-5.9,4-8.7,8.7-8.7,13.9V242.9z"/>
<path id="path13_1_" inkscape:export-xdpi="90" inkscape:connector-curvature="0" inkscape:export-filename="C:\Users\anon\Desktop\logo4.0.png" inkscape:export-ydpi="90" fill="#FFFFFF" d="
	M429.9,261.2v-48.3c0-25.4,13.3-37.7,40.2-37.7c10.8,0,19.5,2.5,26.3,7.1c7.7,5.9,11.4,13.9,11.4,23.8c0,4.6-1.9,7.1-5.9,7.1
	c-2.8,0-4.6-2.2-5.9-6.8c-0.6-3.7-2.2-7.4-4.3-10.8c-3.4-6.2-10.8-9-22.6-9c-9.9,0-17,2.5-21.3,7.4c-4,4.6-6.2,11.8-6.2,22v40.2
	c0,10.5,2.2,17.9,6.5,22.6c4.6,5,11.8,7.7,21.7,7.7c15.2,0,23.8-5.3,26-15.8c0.9-4,1.2-5.9,1.2-6.2c0.9-2.2,2.5-3.4,4.6-3.4
	c3.7,0,5.9,2.5,5.9,7.1c0,9.6-4,17-12.1,22.9c-6.5,4.3-14.9,6.5-25.4,6.5c-12.4,0-22-2.8-29.1-8.7
	C433.7,282.5,429.9,273.3,429.9,261.2L429.9,261.2z"/>
<path id="path15_9_" inkscape:export-xdpi="90" inkscape:connector-curvature="0" inkscape:export-filename="C:\Users\anon\Desktop\logo4.0.png" inkscape:export-ydpi="90" fill="#FFFFFF" d="
	M525.8,268v-31.9c0-19.5,13-29.1,39-29.1s39,9.6,39,29.1V268c0,19.5-12.7,29.1-38.4,29.1C538.8,297.1,525.8,287.5,525.8,268
	L525.8,268z M592.4,268v-31.9c0-12.1-9.3-18.3-28.2-18.3c-17.9,0-27.2,6.2-27.2,18.3V268c0,12.1,9.3,18.3,27.8,17.9
	C583.4,285.9,592.4,280.1,592.4,268z"/>
<path id="path17_1_" inkscape:export-xdpi="90" inkscape:connector-curvature="0" inkscape:export-filename="C:\Users\anon\Desktop\logo4.0.png" inkscape:export-ydpi="90" fill="#FFFFFF" d="
	M688.9,286.6c-5.3,4-9.9,6.5-13.9,8c-4.3,1.5-9.6,2.5-15.8,2.5c-10.5,0-18.9-2.2-25.4-6.5c-7.4-5-11.1-12.4-11.1-22.6v-32.5
	c0-9.6,3.7-17,10.8-22c6.2-4.3,14.5-6.5,24.4-6.5c6.5,0,12.1,0.6,16.4,2.2c4.3,1.5,9,4.3,13.9,8.4v-39.9c0-5.3,1.9-8,5.3-8
	c3.7,0,5.9,2.8,5.9,8v113.5c0,4-1.9,5.9-5.3,5.9c-2.2,0-3.7-1.2-4.3-3.7C689.2,291.5,688.9,289.3,688.9,286.6L688.9,286.6z
	 M688.3,273.6V229c-5.6-4-9.9-6.8-13.3-8c-4.6-1.9-9.6-2.8-15.2-2.8c-7.1,0-13,1.2-17.3,4c-5.6,3.4-8.4,8.4-8.4,14.5v30.6
	c0,6.5,2.8,11.4,8.7,14.9c4.6,2.5,10.5,4,17.6,4c5.9,0,11.1-0.9,15.5-2.8C679.6,281,683.6,277.9,688.3,273.6L688.3,273.6z"/>
<path id="path19_1_" inkscape:export-xdpi="90" inkscape:connector-curvature="0" inkscape:export-filename="C:\Users\anon\Desktop\logo4.0.png" inkscape:export-ydpi="90" fill="#FFFFFF" d="
	M731,254.1v12.4c0,13.3,9.3,19.8,28.2,19.8c6.8,0,12.4-0.6,16.7-2.2c2.2-0.6,6.2-2.8,11.4-6.5c3.4-3.1,5.9-4.6,6.8-4.6
	c3.1,0,4.6,1.5,4.6,5c0,3.4-2.2,6.8-6.8,10.5c-7.4,5.9-18.6,9-33.4,9c-26,0-39-10.2-39-30.6v-30.9c0-7.1,2.8-13.3,8-18.3
	c7.1-6.8,17.6-9.9,31.9-9.9c25.4,0,38.1,12.7,38.1,37.7c0,6.2-2.5,9.3-7.1,9.3H731V254.1z M731,242.9h55.4
	c0-16.7-9.3-25.1-28.2-25.1c-6.8,0-13,1.5-18.6,4.6c-5.9,4-8.7,8.7-8.7,13.9V242.9z"/>
<path id="path21_1_" inkscape:export-xdpi="90" inkscape:connector-curvature="0" inkscape:export-filename="C:\Users\anon\Desktop\logo4.0.png" inkscape:export-ydpi="90" fill="#FFFFFF" d="
	M817.9,261.2v-48.3c0-25.4,13.3-37.7,40.2-37.7c10.8,0,19.5,2.5,26.3,7.1c7.7,5.9,11.4,13.9,11.4,23.8c0,4.6-1.9,7.1-5.9,7.1
	c-2.8,0-4.6-2.2-5.9-6.8c-0.6-3.7-2.2-7.4-4.3-10.8c-3.4-6.2-10.8-9-22.6-9c-9.9,0-17,2.5-21.3,7.4c-4,4.6-6.2,11.8-6.2,22v40.2
	c0,10.5,2.2,17.9,6.5,22.6c4.6,5,11.8,7.7,21.7,7.7c15.2,0,23.8-5.3,26-15.8c0.9-4,1.2-5.9,1.2-6.2c0.9-2.2,2.5-3.4,4.6-3.4
	c3.7,0,5.9,2.5,5.9,7.1c0,9.6-4,17-12.1,22.9c-6.5,4.3-14.9,6.5-25.4,6.5c-12.4,0-22-2.8-29.1-8.7
	C821.9,282.5,817.9,273.3,817.9,261.2L817.9,261.2z"/>
<path id="path23_1_" inkscape:export-xdpi="90" inkscape:connector-curvature="0" inkscape:export-filename="C:\Users\anon\Desktop\logo4.0.png" inkscape:export-ydpi="90" fill="#FFFFFF" d="
	M976.3,286.6c-5.6,4-9.9,6.8-13,8c-4,1.5-9,2.5-15.2,2.5c-9.3,0-17-1.9-22.9-5.9c-6.8-4.6-10.5-11.4-10.5-20.4c0-9,3.7-16.1,10.8-21
	c6.2-4.6,14.2-6.8,23.5-6.8c7.7,0,16.4,1.9,26.3,5.3v-13.6c0-6.5-3.1-11.1-9.3-13.9c-4.3-1.9-9.6-2.8-15.8-2.8
	c-14.5,0-22.3,4-23.8,12.1c-0.6,3.7-1.2,5.6-1.2,5.9c-0.9,1.9-2.5,2.8-4.6,2.8c-4,0-6.2-2.2-6.2-6.5c0-5.9,2.2-11.1,6.8-16.1
	c5.6-6.2,15.8-9.3,30-9.3c11.4,0,19.8,1.9,25.4,5.6c6.5,4.6,9.9,12.4,9.9,23.2v39.6c0,4.6,0.9,7.7,2.8,9.3c0.3,0.3,2.2,1.2,5.3,2.5
	c1.9,0.9,2.8,2.5,2.8,5.3c0,3.1-1.5,4.6-5,4.6c-0.9,0-2.5-0.3-5-1.2c-4.3-1.5-7.1-2.5-7.7-2.8C978.2,291.8,976.9,289.7,976.3,286.6
	L976.3,286.6z M975.7,274.8v-16.4c-8.7-2.8-17-4.3-24.4-4.3c-16.7,0-25.1,5.3-25.1,16.1c0,5.6,2.5,9.9,7.4,12.4
	c4,2.2,9,3.4,15.2,3.4c5.3,0,10.2-0.9,14.5-3.1C966.7,281.6,970.8,278.8,975.7,274.8L975.7,274.8z"/>
<path id="path25_1_" inkscape:export-xdpi="90" inkscape:connector-curvature="0" inkscape:export-filename="C:\Users\anon\Desktop\logo4.0.png" inkscape:export-ydpi="90" fill="#FFFFFF" d="
	M1019.6,216.3c2.8-3.4,5.3-5.9,7.1-6.8c2.5-1.5,5.6-2.5,9.6-2.5c6.2,0,11.4,3.1,16.1,9.6c3.1-3.7,5.9-6.2,8.4-7.4
	c2.8-1.5,6.5-2.2,10.8-2.2c13.3,0,20.1,6.5,20.1,19.5v62.8c0,5.3-1.9,7.7-5.9,7.7c-3.7,0-5.6-2.5-5.6-7.7v-59.1
	c0-8-3.4-12.4-9.9-12.4c-5,0-9.9,3.1-14.2,9v62.5c0,5.3-1.9,7.7-5.6,7.7c-3.7,0-5.6-2.5-5.6-7.7v-57.9c0-9-3.7-13.3-10.8-13.3
	c-4.6,0-9,3.1-13.6,9v62.2c0,5.3-1.9,7.7-5.9,7.7c-3.7,0-5.6-2.5-5.6-7.7v-76.7c0-3.7,1.5-5.6,4.6-5.6c1.5,0,3.1,1.2,4,3.4
	C1019,212,1019.6,214.2,1019.6,216.3L1019.6,216.3z"/>
<path id="path27_1_" inkscape:export-xdpi="90" inkscape:connector-curvature="0" inkscape:export-filename="C:\Users\anon\Desktop\logo4.0.png" inkscape:export-ydpi="90" fill="#FFFFFF" d="
	M1120.2,216.3c8.7-6.2,18.9-9.3,30-9.3c23.5,0,35.3,9.9,35.3,29.4v32.2c0,9.3-3.4,16.4-9.9,21.7c-5.9,4.6-13.9,7.1-24.1,7.1
	c-12.1,0-22.3-3.1-31.2-9.6v36.5c0,5.6-1.9,8.4-5.6,8.4s-5.6-2.8-5.6-8.4V215.4c0-5.6,1.5-8.4,4.6-8.4c1.5,0,3.1,1.2,4.3,3.4
	C1118.6,212.3,1119.6,214.5,1120.2,216.3L1120.2,216.3z M1120.2,275.1c8,7.1,17.9,10.8,29.4,10.8c7.1,0,12.7-1.2,17-4
	c5.3-3.1,7.7-7.7,7.7-13.6v-32.2c0-6.8-2.8-11.4-8.4-14.5c-4.3-2.2-10.2-3.4-17.3-3.4c-6.5,0-11.8,0.9-15.8,2.8
	c-3.7,1.5-7.7,5-12.7,9.9V275.1L1120.2,275.1z"/>
<path id="path29_1_" inkscape:export-xdpi="90" inkscape:connector-curvature="0" inkscape:export-filename="C:\Users\anon\Desktop\logo4.0.png" inkscape:export-ydpi="90" fill="#FFFFFF" d="
	M1223.8,244.5c0-24.4,8.4-46.1,25.4-65.3c6.2-7.1,11.1-10.5,14.5-10.5c1.2,0,2.5,0.3,3.4,1.2c0.9,0.9,1.5,1.9,1.5,3.1
	c0,1.9-2.2,4.6-6.5,9c-17.6,17-26.6,38.1-26.6,63.1c0,27.8,9.3,50.4,27.5,67.8c3.7,3.4,5.6,6.2,5.6,8.4c0,1.2-0.6,2.5-1.5,3.4
	s-2.2,1.5-3.4,1.5c-4.3,0-10.2-5-17.9-14.9C1231,293.1,1223.8,270.8,1223.8,244.5L1223.8,244.5z"/>
<path id="path31_1_" inkscape:export-xdpi="90" inkscape:connector-curvature="0" inkscape:export-filename="C:\Users\anon\Desktop\logo4.0.png" inkscape:export-ydpi="90" fill="#FFFFFF" d="
	M1458,250.7c0,24.4-8.4,46.1-25.4,65.3c-6.2,7.1-11.1,10.5-14.5,10.5c-1.2,0-2.5-0.3-3.4-1.2s-1.5-2.2-1.5-3.4
	c0-1.9,2.2-4.6,6.5-8.7c17.6-17,26.6-38.1,26.6-63.1c0-27.8-9.3-50.4-27.5-67.8c-3.7-3.4-5.6-6.2-5.6-8.4c0-1.2,0.6-2.5,1.5-3.4
	c0.9-0.9,2.2-1.5,3.4-1.5c4,0,10.2,5,17.9,14.9C1450.6,202.4,1458,224.7,1458,250.7L1458,250.7z"/>
<g id="g33_1_" transform="matrix(2.5023894,0,0,2.5023894,10.019816,292.82522)" inkscape:export-xdpi="90" inkscape:export-filename="C:\Users\anon\Desktop\logo4.0.png" inkscape:export-ydpi="90">
	<path id="path37_1_" inkscape:connector-curvature="0" fill="#FFFFFF" d="M553.2,11.3h-42.9c-1.4,0-2.6-1.1-2.6-2.6
		c0-1.5,1.1-2.6,2.6-2.6h42.9c1.4,0,2.6,1.1,2.6,2.6C555.8,10.2,554.7,11.3,553.2,11.3z"/>
</g>
<path fill="#FFFFFF" d="M1318.3,182c0,0,8.9,6.2,8.9,17.3c0,19.2-26.1,40.7-26.1,60.6c0,21.7,16.5,35.7,32.5,40
	c2.2,0.5,3.2-2.1,0.5-2.8c-6.5-1.6-13.7-10.1-13.7-23.4c0-12.3,11.8-17,16.6-23c4.9-6.1,3.7-13.9,0.9-16.1s-0.9-5.3,4.2-1.7
	s9.4,10.3,7.8,16.7c-2,8.2,0.6,12.9,4.9,13.4c4.2,0.6,9-1.5,8.5-5.5c-0.5-4-2.8-8.1-1.4-8.1c3,0,9.4,7.5,9.4,19.2
	c0,11.9-9.8,20.1-12.7,23.2c-1.8,1.9,0.6,4.3,3,3.2c1.2-0.6,3.9-2.1,5.5-3.2c7.7-5.5,19.8-16.7,19.8-37.3c0-21.6-8.2-31.2-16.5-39.4
	c-8.2-8.1-10.3-6-8-2.1c7.1,12.1,2.8,16.1-2.4,16.1c-6,0-6.4-13.7-8.7-24.1c-5.2-23.2-26.1-27.2-30.1-27.3
	C1317.1,177.7,1313.6,180,1318.3,182z"/>
</svg>
