<?xml version="1.0" encoding="utf-8"?>
<!-- Generator: Adobe Illustrator 18.0.0, SVG Export Plug-In . SVG Version: 6.00 Build 0)  -->
<!DOCTYPE svg PUBLIC "-//W3C//DTD SVG 1.0//EN" "http://www.w3.org/TR/2001/REC-SVG-20010904/DTD/svg10.dtd">
<svg version="1.0" id="Layer_1" xmlns="http://www.w3.org/2000/svg" xmlns:xlink="http://www.w3.org/1999/xlink" x="0px" y="0px"
	 viewBox="0 0 271.9 199.4" enable-background="new 0 0 271.9 199.4" xml:space="preserve">
<path id="path29_1_" inkscape:export-xdpi="90" inkscape:connector-curvature="0" inkscape:export-filename="C:\Users\anon\Desktop\logo4.0.png" inkscape:export-ydpi="90" fill="#FFFFFF" d="
	M18.8,97.2c0-24.4,8.4-46.1,25.4-65.3c6.2-7.1,11.1-10.5,14.5-10.5c1.2,0,2.5,0.3,3.4,1.2c0.9,0.9,1.5,1.9,1.5,3.1
	c0,1.9-2.2,4.6-6.5,9c-17.6,17-26.6,38.1-26.6,63.1c0,27.8,9.3,50.4,27.5,67.8c3.7,3.4,5.6,6.2,5.6,8.4c0,1.2-0.6,2.5-1.5,3.4
	c-0.9,0.9-2.2,1.5-3.4,1.5c-4.3,0-10.2-5-17.9-14.9C25.9,145.8,18.8,123.5,18.8,97.2L18.8,97.2z"/>
<path id="path31_1_" inkscape:export-xdpi="90" inkscape:connector-curvature="0" inkscape:export-filename="C:\Users\anon\Desktop\logo4.0.png" inkscape:export-ydpi="90" fill="#FFFFFF" d="
	M253,103.4c0,24.4-8.4,46.1-25.4,65.3c-6.2,7.1-11.1,10.5-14.5,10.5c-1.2,0-2.5-0.3-3.4-1.2s-1.5-2.2-1.5-3.4c0-1.9,2.2-4.6,6.5-8.7
	c17.6-17,26.6-38.1,26.6-63.1c0-27.8-9.3-50.4-27.5-67.8c-3.7-3.4-5.6-6.2-5.6-8.4c0-1.2,0.6-2.5,1.5-3.4c0.9-0.9,2.2-1.5,3.4-1.5
	c4,0,10.2,5,17.9,14.9C245.6,55.1,253,77.4,253,103.4L253,103.4z"/>
<g id="g33_1_" transform="matrix(2.5023894,0,0,2.5023894,10.019816,292.82522)" inkscape:export-xdpi="90" inkscape:export-filename="C:\Users\anon\Desktop\logo4.0.png" inkscape:export-ydpi="90">
	<path id="path37_1_" inkscape:connector-curvature="0" fill="#FFFFFF" d="M71.7-47.5H28.8c-1.4,0-2.6-1.1-2.6-2.6s1.1-2.6,2.6-2.6
		h42.9c1.4,0,2.6,1.1,2.6,2.6C74.3-48.7,73.2-47.5,71.7-47.5z"/>
</g>
<path fill="#FFFFFF" d="M113.2,34.7c0,0,8.9,6.2,8.9,17.3c0,19.2-26.1,40.7-26.1,60.6c0,21.7,16.5,35.7,32.5,40
	c2.2,0.5,3.2-2.1,0.5-2.8c-6.5-1.6-13.7-10.1-13.7-23.4c0-12.3,11.8-17,16.6-23c4.9-6.1,3.7-13.9,0.9-16.1c-2.8-2.3-0.9-5.3,4.2-1.7
	s9.4,10.3,7.8,16.7c-2,8.2,0.6,12.9,4.9,13.4s9-1.5,8.5-5.5c-0.5-4-2.8-8.1-1.4-8.1c3,0,9.4,7.5,9.4,19.2c0,11.9-9.8,20.1-12.7,23.2
	c-1.8,1.9,0.6,4.3,3,3.2c1.2-0.6,3.9-2.1,5.5-3.2c7.7-5.5,19.8-16.7,19.8-37.3c0-21.6-8.2-31.2-16.5-39.4s-10.3-6-8-2.1
	c7.1,12.1,2.8,16.1-2.4,16.1c-6,0-6.4-13.7-8.7-24.1C141,34.7,120,30.8,116,30.6S108.5,32.7,113.2,34.7z"/>
</svg>
