<svg xmlns="http://www.w3.org/2000/svg" xmlns:xlink="http://www.w3.org/1999/xlink" version="1.1" id="Layer_1" x="0px" y="0px" width="100px" height="100px" viewBox="5.0 -10.0 100.0 135.0" enable-background="new 0 0 100 100" xml:space="preserve">
<g id="Captions">
	<rect x="-192" width="185" height="99"/>
	<rect y="-36" width="100" height="30"/>
	<text transform="matrix(1 0 0 1 66 -19.5)" fill="#000000" font-family="'Helvetica'" font-size="2.4">http://thenounproject.com</text>
	<text transform="matrix(1 0 0 1 7.166 -24.5)" fill="#000000" font-family="'Helvetica-Bold'" font-size="6.1578">The Noun Project</text>
	<text transform="matrix(1 0 0 1 8.2861 -19.7002)" fill="#000000" font-family="'Helvetica-Bold'" font-size="4">Icon Template</text>
	<text transform="matrix(1 0 0 1 -178.5 10.5)" fill="#000000" font-family="'Helvetica-Bold'" font-size="6.1578">Reminders</text>
	<line fill="#000000" stroke="#FFFFFF" stroke-miterlimit="10" x1="8" y1="-14.5" x2="18" y2="-14.5"/>
	<line fill="#000000" stroke="#FFFFFF" stroke-miterlimit="10" x1="-179" y1="16.5" x2="-162" y2="16.5"/>
	<g>
		<g>
			<g>
				<rect x="-170.802" y="31.318" fill="#000000" width="8.721" height="8.642"/>
				<path fill="#000000" d="M-164.455,42.312h4.747v-4.703h-4.747V42.312z M-159.266,42.749h-5.63V37.17h5.63V42.749      L-159.266,42.749z M-166.221,44.062h8.279v-8.203h-8.279V44.062L-166.221,44.062z M-157.5,44.5h-9.163v-9.079h9.163V44.5      L-157.5,44.5z"/>
				<polygon fill="#000000" points="-166.149,44.133 -166.292,43.991 -158.013,35.787 -157.871,35.929     "/>
			</g>
		</g>
	</g>
	<rect x="-179" y="58" fill="none" width="35" height="32.5"/>
	<text transform="matrix(1 0 0 1 -179 60.1572)" fill="#000000" font-family="'Helvetica-Bold'" font-size="3">Strokes</text>
	<text transform="matrix(1 0 0 1 -179 65.1572)" fill="#000000" font-family="'Helvetica'" font-size="2.4">Try to keep strokes at 4px</text>
	<text transform="matrix(1 0 0 1 -179 70.1572)" fill="#000000" font-family="'Helvetica'" font-size="2.4">Minimum stroke weight is 2px</text>
	<text transform="matrix(1 0 0 1 -179 74.6572)" fill="#000000" font-family="'Helvetica'" font-size="2.4">For thicker strokes use even </text>
	<text transform="matrix(1 0 0 1 -179 77.6572)" fill="#000000" font-family="'Helvetica'" font-size="2.4">numbers: 6px, 8px etc.</text>
	<text transform="matrix(1 0 0 1 -179 82.1572)" fill="#000000" font-family="'Helvetica-Bold'" font-size="2.4">Remember to expand strokes </text>
	<text transform="matrix(1 0 0 1 -179 85.1572)" fill="#000000" font-family="'Helvetica-Bold'" font-size="2.4">before saving as an SVG </text>
	<rect x="-136.5" y="58" fill="none" width="35" height="32.5"/>
	<text transform="matrix(1 0 0 1 -136.5 60.1572)" fill="#000000" font-family="'Helvetica-Bold'" font-size="3">Size</text>
	<text transform="matrix(1 0 0 1 -136.5 65.1572)" fill="#000000" font-family="'Helvetica'" font-size="2.4">Cannot be wider or taller than </text>
	<text transform="matrix(1 0 0 1 -136.5 68.6572)" fill="#000000" font-family="'Helvetica'" font-size="2.4">100px (artboard size)</text>
	<text transform="matrix(1 0 0 1 -136.5 73.6572)" fill="#000000" font-family="'Helvetica'" font-size="2.4">Scale your icon to fill as much of </text>
	<text transform="matrix(1 0 0 1 -136.5 76.6572)" fill="#000000" font-family="'Helvetica'" font-size="2.4">the artboard as possible</text>
	<rect x="-94" y="58" fill="none" width="35" height="32.5"/>
	<text transform="matrix(1 0 0 1 -94 60.1572)" fill="#000000" font-family="'Helvetica-Bold'" font-size="3">Ungroup</text>
	<text transform="matrix(1 0 0 1 -94 65.1572)" fill="#000000" font-family="'Helvetica'" font-size="2.4">If your design has more than one </text>
	<text transform="matrix(1 0 0 1 -94 68.1572)" fill="#000000" font-family="'Helvetica'" font-size="2.4">shape, make sure to ungroup</text>
	<rect x="-50" y="58" fill="none" width="35" height="32.5"/>
	<text transform="matrix(1 0 0 1 -50 60.1572)" fill="#000000" font-family="'Helvetica-Bold'" font-size="3">Save as</text>
	<text transform="matrix(1 0 0 1 -50 65.1572)" fill="#000000" font-family="'Helvetica'" font-size="2.4">Save as .SVG and make sure </text>
	<text transform="matrix(1 0 0 1 -50 68.1572)" fill="#000000" font-family="'Helvetica'" font-size="2.4">&#8220;Use Artboards&#8221; is checked</text>
	<text transform="matrix(1.0074 0 0 1 -125.542 30.5938)" fill="#000000" font-family="'Helvetica'" font-size="2.5731">100px</text>
	<text transform="matrix(1.0074 0 0 1 -41 39)" fill="#000000" font-family="'Helvetica-Bold'" font-size="5.1462">.SVG</text>
	<rect x="-126.514" y="34.815" fill="#000000" width="10.261" height="10.185"/>
	<rect x="-126.477" y="31.766" fill="#000000" width="0.522" height="2.337"/>
	<rect x="-116.812" y="31.766" fill="#000000" width="0.523" height="2.337"/>
	<rect x="-127" y="32.337" fill="#000000" width="11.233" height="0.572"/>
	<g>
		<rect x="-83.805" y="33.844" fill="#000000" width="10.305" height="10.156"/>
		<rect x="-76.809" y="28.707" fill="#000000" width="3.308" height="3.261"/>
	</g>
	<rect x="-178.5" y="22.5" fill="#000000" stroke="#FFFFFF" stroke-miterlimit="10" width="30" height="30"/>
	<rect x="-136.5" y="22.5" fill="#000000" stroke="#FFFFFF" stroke-miterlimit="10" width="30" height="30"/>
	<rect x="-93.5" y="22.5" fill="#000000" stroke="#FFFFFF" stroke-miterlimit="10" width="30" height="30"/>
	<rect x="-49.5" y="22.5" fill="#000000" stroke="#FFFFFF" stroke-miterlimit="10" width="30" height="30"/>
</g>
<g>
	<path d="M33.866,71.484c0.667-0.043,1.35-0.072,2.067-0.072h5.959c-5.919-2.248-10.773-6-14.84-10.963   c0.035-0.076,0.07-0.154,0.105-0.23c0.724,0,1.448,0,2.172,0c2.843,0,5.687,0.002,8.53-0.002c0.36-0.002,0.662-0.012,0.841,0.428   c1.603,3.922,3.847,7.451,6.44,10.769h4.887c-3.112-3.274-5.521-6.994-7.474-11.14c3.299,0,6.477,0,9.69,0c0,3.701,0,7.381,0,11.14   h2.593c0.206-0.031,0.415-0.002,0.63-0.002c0.177,0,0.351,0.014,0.522,0.034c0-3.771,0-7.456,0-11.172c3.207,0,6.386,0,9.691,0   c-2.053,4.388-4.634,8.291-8.033,11.732c1.258,0.74,2.104,2.1,2.104,3.686c0,0.451-0.069,0.886-0.196,1.293   c18.521-2.67,32.568-18.748,32.35-37.832C91.671,18.722,75.023,1.812,54.09,1.824C32.969,1.836,16.055,19.159,16.336,40.121   C16.511,53.201,23.417,64.826,33.866,71.484z M56.419,56.498c-0.121,0-0.242-0.021-0.419-0.041c0-5.025,0-9.973,0-14.961   c4.68,0,9.318,0,14.1,0c-0.151,1.68-0.244,3.308-0.455,4.92c-0.422,3.248-1.201,6.417-2.238,9.521   c-0.123,0.367-0.26,0.58-0.721,0.576C63.264,56.49,59.842,56.5,56.419,56.498z M56.018,37.711c0-4.983,0-9.947,0-14.96   c0.197-0.018,0.391-0.052,0.582-0.052c3.321-0.003,6.643,0,9.965-0.005c0.362-0.001,0.656-0.004,0.807,0.45   c1.535,4.631,2.518,9.363,2.65,14.253c0.002,0.073-0.021,0.147-0.051,0.314C65.312,37.711,60.693,37.711,56.018,37.711z    M62.062,72.742c0.301-0.387,0.486-0.633,0.681-0.875c2.731-3.41,5.058-7.068,6.782-11.098c0.1-0.234,0.434-0.523,0.66-0.525   c3.547-0.033,7.096-0.021,10.644-0.02c0.093,0,0.188,0.036,0.456,0.09C76.206,66.553,70.018,70.816,62.062,72.742z M87.425,46.899   c-0.655,3.171-1.864,6.15-3.376,9.009c-0.183,0.346-0.334,0.609-0.822,0.605c-3.854-0.027-7.703-0.021-11.557-0.025   c-0.145,0-0.287-0.027-0.525-0.053c1.556-4.885,2.438-9.837,2.619-14.943c4.811,0,9.553,0,14.51,0   C87.988,43.346,87.789,45.14,87.425,46.899z M83.918,23.104c2.329,4.266,3.82,8.797,4.188,13.667   c0.021,0.295,0.002,0.593,0.002,0.935c-4.791,0-9.533,0-14.342,0c-0.183-5.105-1.066-10.06-2.625-14.955   c0.319-0.019,0.537-0.042,0.756-0.042c3.729-0.005,7.453-0.018,11.181,0.005C83.365,22.716,83.797,22.881,83.918,23.104z    M81.186,18.739c-0.031,0.08-0.062,0.16-0.095,0.24c-0.295,0-0.59,0-0.885,0c-3.271,0-6.542-0.001-9.812,0.001   c-0.354,0-0.668,0.028-0.85-0.416c-1.757-4.298-4.275-8.131-7.189-11.721c-0.062-0.076-0.108-0.165-0.24-0.367   C70.01,8.361,76.182,12.65,81.186,18.739z M55.993,5.77c2.37,1.202,8.761,9.96,9.582,13.157c-3.191,0-6.369,0-9.582,0   C55.993,14.512,55.993,10.145,55.993,5.77z M36.452,56.488c-3.776,0.006-7.553,0.018-11.33-0.006   c-0.282-0.002-0.697-0.195-0.822-0.426c-2.276-4.178-3.738-8.614-4.151-13.372c-0.024-0.276-0.027-0.553-0.032-0.83   c-0.002-0.1,0.018-0.199,0.032-0.354c4.75,0,9.493,0,14.33,0c0.18,5.107,1.06,10.041,2.615,14.924   C36.827,56.453,36.639,56.488,36.452,56.488z M52.241,56.436c-0.191,0.021-0.382,0.062-0.572,0.062   c-3.347,0.004-6.692-0.002-10.039,0.01c-0.396,0.002-0.636-0.07-0.776-0.498c-1.499-4.535-2.464-9.168-2.629-13.954   c-0.006-0.17,0.019-0.343,0.032-0.561c4.648,0,9.268,0,13.984,0C52.241,46.486,52.241,51.432,52.241,56.436z M52.238,37.714   c-4.675,0-9.292,0-14.058,0c0.088-1.277,0.13-2.522,0.269-3.756c0.402-3.608,1.198-7.131,2.347-10.576   c0.166-0.497,0.369-0.706,0.934-0.701c3.271,0.032,6.541,0.015,9.812,0.017c0.222,0,0.44,0.025,0.698,0.041   C52.238,27.73,52.238,32.677,52.238,37.714z M52.221,5.699c0,4.424,0,8.802,0,13.23c-3.184,0-6.361,0-9.552,0   C43.43,15.877,49.053,8.085,52.221,5.699z M46.106,6.474c-1.089,1.479-2.113,2.814-3.078,4.192   c-1.706,2.437-3.148,5.025-4.288,7.775c-0.156,0.375-0.333,0.548-0.763,0.545c-3.472-0.016-6.944-0.008-10.417-0.011   c-0.144,0-0.287-0.03-0.627-0.068C32.035,12.646,38.223,8.381,46.106,6.474z M20.322,34.958c0.563-4.159,1.942-8.052,3.92-11.739   c0.12-0.223,0.416-0.498,0.632-0.5c4.026-0.03,8.053-0.021,12.232-0.021c-1.553,4.935-2.458,9.899-2.631,15.015   c-4.799,0-9.522,0-14.393,0C20.163,36.778,20.2,35.862,20.322,34.958z"/>
</g>
<g>
	<g>
		<path fill="#000000" d="M72.443,73.527c-2.627,1.424-5.439,2.549-8.396,3.336c-1.254,1.4-2.416,2.768-3.108,3.752h5.182    L72.443,73.527z"/>
	</g>
	<g>
		<path fill="#000000" d="M90.107,73.631c0-1.904-1.53-3.449-3.416-3.449c-0.971,0-1.844,0.41-2.467,1.066h-0.002l-0.078,0.078    c-0.569,0.391-0.916,0.809-0.916,0.809l-5.635,5.729l-3.938,3.932L41.597,81.82c-4.584,0-2.34-1.574-2.34-1.574s14.517,0,16.224,0    c0.369,0,0.691-0.09,0.979-0.242c1.561-0.564,2.68-2.066,2.68-3.838c0-2.254-1.81-4.033-4.039-4.033    c-0.201,0-0.398-0.027-0.593,0.002H36.695c-14.942,0-17.93,10.244-17.93,10.244L8.092,98.176h26.016    c1.936-5.795,6.857-6.332,6.857-6.332h26.895c5.23,0,8.539-2.633,8.539-2.633l1.084-1.123L89.07,76.117l-0.006-0.008    c0.268-0.26,0.49-0.564,0.662-0.9c0.312-0.541,0.405-1.004,0.371-1.395C90.102,73.754,90.107,73.693,90.107,73.631z"/>
	</g>
	<g>
		<path fill="#000000" d="M72.936,80.57l7.354-7.551l-0.004-0.004c0.367-0.359,0.597-0.861,0.597-1.418    c0.001-1.091-0.874-1.976-1.952-1.976c-0.556,0-1.056,0.233-1.41,0.61l-0.002-0.002c0,0-8.002,7.562-9.943,10.345L72.936,80.57z"/>
	</g>
</g>
<text x="0.0" y="117.5" font-size="5.0" font-weight="bold" font-family="Helvetica Neue, Helvetica, Arial-Unicode, Arial, Sans-serif" fill="#000000">Created by Chris Tucker</text><text x="0.0" y="122.5" font-size="5.0" font-weight="bold" font-family="Helvetica Neue, Helvetica, Arial-Unicode, Arial, Sans-serif" fill="#000000">from the Noun Project</text></svg>